<svg
    xmlns="http://www.w3.org/2000/svg"
    xmlns:xlink="http://www.w3.org/1999/xlink"
    aria-hidden="true"
    role="img"
    preserveAspectRatio="xMidYMid meet"
    viewBox="0 0 65 65"
>
    <path
        fill="#46cdcf"
        xmlns="http://www.w3.org/2000/svg"
        d="M32.5,63.953c-0.167,0-0.335-0.056-0.473-0.168c-2.53-2.055-3.863-4.327-3.963-6.754c-0.1-2.412,1.057-4.935,3.354-7.331  c-2.292-2.034-5.405-3.879-8.639-5.131c0.578,2.174,1.112,5.38-0.122,7.086c-0.504,0.698-1.248,1.066-2.149,1.066  c-1.413,0-3.187-0.882-5.422-2.698c-0.041-0.032-0.077-0.069-0.109-0.109c-2.372-2.92-3.172-5.082-2.445-6.608  c0.373-0.781,1.33-1.714,3.78-1.714c1.18,0,2.584,0.215,4.119,0.627c-1.251-3.232-3.096-6.344-5.129-8.637  c-2.299,2.201-4.719,3.36-7.038,3.36c-2.537,0-4.908-1.335-7.047-3.969c-0.224-0.275-0.224-0.67,0-0.945  c2.139-2.634,4.51-3.97,7.048-3.97c2.319,0,4.739,1.159,7.037,3.359c2.032-2.29,3.876-5.401,5.128-8.636  c-1.535,0.412-2.938,0.626-4.117,0.626h0c-2.449,0-3.406-0.932-3.778-1.714c-0.727-1.527,0.072-3.689,2.444-6.608  c0.032-0.041,0.069-0.077,0.109-0.109c2.235-1.816,4.009-2.698,5.421-2.698c0.902,0,1.646,0.369,2.15,1.067  c1.233,1.707,0.699,4.913,0.121,7.086c3.234-1.251,6.347-3.097,8.641-5.131c-2.297-2.397-3.454-4.919-3.354-7.331  c0.101-2.427,1.434-4.7,3.963-6.754c0.275-0.224,0.67-0.224,0.945,0c2.529,2.054,3.863,4.327,3.964,6.754  c0.1,2.412-1.058,4.934-3.354,7.331c2.293,2.034,5.405,3.879,8.64,5.13c-0.578-2.174-1.112-5.379,0.121-7.086  c0.505-0.698,1.248-1.067,2.15-1.067c1.412,0,3.186,0.882,5.421,2.698c0.04,0.032,0.077,0.069,0.109,0.109  c2.372,2.92,3.172,5.082,2.445,6.609c-0.372,0.782-1.33,1.714-3.779,1.714c-1.18,0-2.584-0.215-4.119-0.627  c1.251,3.233,3.096,6.344,5.13,8.637c2.298-2.201,4.719-3.36,7.037-3.36c2.537,0,4.908,1.335,7.048,3.97  c0.224,0.275,0.224,0.67,0,0.945c-2.14,2.634-4.511,3.969-7.048,3.969c-2.319,0-4.739-1.158-7.038-3.36  c-2.032,2.291-3.877,5.402-5.128,8.637c1.535-0.412,2.939-0.627,4.118-0.627c2.448,0,3.406,0.933,3.778,1.714  c0.727,1.527-0.072,3.689-2.444,6.608c-0.032,0.04-0.069,0.077-0.109,0.109c-2.235,1.816-4.009,2.698-5.422,2.698  c-0.901,0-1.645-0.368-2.148-1.066c-1.234-1.707-0.699-4.912-0.121-7.086c-3.234,1.251-6.348,3.097-8.641,5.131  c2.297,2.396,3.454,4.919,3.354,7.331c-0.1,2.427-1.434,4.699-3.963,6.754C32.835,63.897,32.667,63.953,32.5,63.953z M32.5,50.738  c-1.5,1.567-3.039,3.786-2.938,6.23c0.076,1.831,1.063,3.595,2.938,5.252c1.874-1.656,2.861-3.421,2.938-5.252  C35.538,54.524,34,52.306,32.5,50.738z M43.96,43.959c-0.984,3.135-1.146,5.787-0.4,6.817c0.22,0.304,0.516,0.445,0.933,0.445  c0.709,0,2.05-0.402,4.416-2.313c2.591-3.209,2.406-4.535,2.205-4.957c-0.355-0.748-1.671-0.859-2.424-0.859  C47.394,43.092,45.765,43.391,43.96,43.959z M16.091,48.908c2.367,1.911,3.707,2.313,4.416,2.313c0.417,0,0.714-0.142,0.934-0.445  c0.745-1.03,0.584-3.683-0.4-6.817c-1.805-0.567-3.434-0.867-4.73-0.867c-0.753,0-2.069,0.111-2.425,0.858  C13.684,44.373,13.5,45.699,16.091,48.908z M22.229,42.771c3.817,1.315,7.583,3.476,10.271,5.884  c2.688-2.409,6.454-4.569,10.272-5.884c1.315-3.819,3.475-7.585,5.883-10.271c-2.409-2.688-4.569-6.454-5.884-10.271  c-3.818-1.315-7.583-3.475-10.271-5.884c-2.688,2.409-6.455,4.569-10.272,5.884c-1.316,3.82-3.476,7.585-5.883,10.271  C18.754,35.188,20.914,38.954,22.229,42.771z M50.738,32.5c2.011,1.928,4.074,2.942,5.999,2.942c1.915,0,3.757-0.989,5.483-2.942  c-1.727-1.953-3.569-2.942-5.483-2.942C54.813,29.558,52.75,30.572,50.738,32.5z M2.78,32.5c1.726,1.953,3.568,2.942,5.483,2.942  c1.924,0,3.987-1.015,5.999-2.942c-2.011-1.928-4.074-2.942-5.999-2.942C6.349,29.558,4.506,30.547,2.78,32.5z M43.959,21.041  c1.805,0.568,3.434,0.867,4.73,0.867c0.753,0,2.069-0.111,2.425-0.858c0.201-0.423,0.386-1.749-2.206-4.958  c-2.366-1.911-3.707-2.313-4.415-2.313c-0.418,0-0.715,0.142-0.935,0.446C42.814,15.254,42.975,17.906,43.959,21.041z   M16.091,16.091c-2.59,3.209-2.406,4.535-2.205,4.958c0.356,0.747,1.672,0.859,2.424,0.859h0c1.296,0,2.924-0.299,4.729-0.867  c0.985-3.134,1.146-5.787,0.401-6.817c-0.22-0.304-0.517-0.446-0.934-0.446C19.798,13.778,18.458,14.181,16.091,16.091z M32.5,2.78  c-1.874,1.657-2.862,3.421-2.938,5.251c-0.101,2.444,1.438,4.663,2.938,6.23c1.5-1.567,3.038-3.786,2.938-6.23  C35.361,6.201,34.374,4.437,32.5,2.78z"
    ></path>

</svg>